<?xml version="1.0" encoding="utf-8"?>
<!-- Generator: Adobe Illustrator 21.0.0, SVG Export Plug-In . SVG Version: 6.00 Build 0)  -->
<svg version="1.1" id="Camada_1" xmlns="http://www.w3.org/2000/svg" xmlns:xlink="http://www.w3.org/1999/xlink" x="0px" y="0px"
	 viewBox="0 0 271 106.5" style="enable-background:new 0 0 271 106.5;" xml:space="preserve">
<style type="text/css">
	.st0{fill:#FFFFFF;}
	.st1{fill:#B20D15;enable-background:new    ;}
</style>
<g>
	<path class="st0" d="M5,48.4l5.5,34.4c1.1,7.3,1.3,8.1,2.1,15.4c1-7.5,1.1-8.4,2.5-16.3l5.8-33.6h4L14.6,105h-4.1L0.9,48.4H5"/>
	<rect x="30.6" y="48.4" class="st0" width="4.1" height="56.7"/>
	<path class="st0" d="M45.9,91c0,4.3,0,6.6,1.7,8.8c1.8,2.3,4.9,2.6,6.6,2.6c5.6,0,7.3-3.4,7.3-9.2c0-6.4-1.8-8.8-8.3-15.3
		c-6.3-6.3-9.9-9.9-9.9-17.8c0-4.7,0.7-12.5,10.7-12.5c10.6,0,10.6,7.7,10.6,13.1v4.1h-3.9v-5.1c0-3.5,0-8.8-6.7-8.8
		c-5.1,0-6.8,3-6.8,8.5s1.1,7.9,9.6,16.5c5.9,6,8.5,8.8,8.5,16.5c0,5.4-0.7,13.5-11.6,13.5c-6.6,0-11.9-3.4-11.9-11.5v-7.9h3.9V91"
		/>
	<rect x="73.3" y="48.4" class="st0" width="4.1" height="56.7"/>
	<path class="st0" d="M86.1,92.9c0,3.5,0,12.8,11.3,12.8c5.3,0,8.4-2.5,9.7-4.6c1.6-2.4,1.8-5.5,1.8-7.8V62.2c0-3.5,0-7.3-2-10.3
		s-5.5-4.2-9.2-4.2c-3.9,0-7.5,1.3-9.7,4.4c-1.3,1.8-2,4.4-2,8.8L86.1,92.9 M105.2,92c0,3.8-0.4,7.4-3.9,9.3c-1,0.6-2.3,1-3.8,1
		c-1.8,0-3.4-0.5-4.7-1.4c-2.4-1.8-3.1-4.1-3.1-9.5V60.2c0-1.1,0-4.7,2.3-6.9c1.3-1.3,3.2-2,5.4-2c2,0,4,0.7,5.3,2
		c2.2,2.3,2.3,6.7,2.3,11.1V92H105.2z"/>
	<path class="st0" d="M139.3,48.4v56.7h-6l-13.4-54.2c0.2,6.5,0.3,8.2,0.3,13.9l0.2,40.3h-3.7V48.4h5.8l13.7,55
		c-0.2-3-0.4-7.9-0.4-13.7l-0.3-41.4L139.3,48.4"/>
	<path class="st1" d="M151.6,48.4l-0.3,41.4c0,5.8-0.2,10.7-0.4,13.7l13.7-55h5.8v56.7h-3.7l0.2-40.3c0-5.7,0.1-7.4,0.3-13.9
		l-13.4,54.2h-6V48.4H151.6"/>
	<path class="st0" d="M185.8,48.1l-10.4,57h4.2l3-17.3h11.9l2.9,17.3h4.2l-10.3-57L185.8,48.1 M193.7,84.1h-10.5l4.7-26.7
		c0.2-0.9,0.2-1.8,0.4-2.6c0.1-0.8,0.2-1.5,0.2-2.3c0.3,2.1,0.6,4.6,0.8,5.4L193.7,84.1z"/>
	<rect x="207.8" y="48.4" class="st0" width="4.1" height="56.7"/>
	<path class="st0" d="M220.2,105.1h3.9V77.4h6.2l10.4,27.6h4.2l-10.4-27.9c7.9-1.5,7.9-7.7,7.9-10v-8.8c0-9.2-6.9-9.9-11.2-9.9
		h-10.9L220.2,105.1 M231.5,51.8c3.9,0,6.7,1,6.7,7.5v8.8c0,4.3-2.5,6-6.9,6h-7.1V51.8H231.5z"/>
	<polyline class="st0" points="250,48.4 270.1,48.4 270.1,51.9 253.9,51.9 253.9,73.8 267.2,73.8 267.2,77.2 253.8,77.2 
		253.8,101.5 270,101.5 270,105.1 250,105.1 250,48.4 	"/>
	<path class="st0" d="M136.1,5c54.1,0,101.7,14.3,132.8,38.5c-29.2-26-78.1-43-133.4-43S31.3,17.5,2.1,43.4C33.2,19.3,82,5,136.1,5"
		/>
</g>
</svg>
